<?xml version="1.0" encoding="utf-8"?>
<!-- Generator: Adobe Illustrator 24.0.1, SVG Export Plug-In . SVG Version: 6.00 Build 0)  -->
<svg version="1.1"
	 id="Layer_1" xmlns:krita="http://krita.org/namespaces/svg/krita" xmlns:sodipodi="http://sodipodi.sourceforge.net/DTD/sodipodi-0.dtd"
	 xmlns="http://www.w3.org/2000/svg" xmlns:xlink="http://www.w3.org/1999/xlink" x="0px" y="0px" viewBox="0 0 661.7 510.5"
	 style="enable-background:new 0 0 661.7 510.5;" xml:space="preserve">
<style type="text/css">
	.st0{fill:#FFB7FF;stroke:#DF29AF;stroke-width:7.2;stroke-linecap:square;stroke-linejoin:bevel;}
	.st1{fill:none;stroke:#DF29AF;stroke-width:7.2;stroke-linecap:square;stroke-miterlimit:2;}
	.st2{fill:#FEA4FD;stroke:#FEA4FD;stroke-width:0.72;stroke-linecap:square;stroke-miterlimit:2;}
	.st3{fill:none;stroke:#DF29AF;stroke-width:7.2;stroke-linecap:round;stroke-linejoin:round;}
	
		.st4{fill-rule:evenodd;clip-rule:evenodd;fill:#DF29AF;stroke:#DF29AF;stroke-width:7.2;stroke-linecap:square;stroke-linejoin:bevel;}
	
		.st5{fill-rule:evenodd;clip-rule:evenodd;fill:#FFFFFF;stroke:#FFFFFF;stroke-width:7.2;stroke-linecap:square;stroke-linejoin:bevel;}
	
		.st6{fill-rule:evenodd;clip-rule:evenodd;fill:#FFFFFF;stroke:#FFFFFF;stroke-width:0.72;stroke-linecap:square;stroke-miterlimit:2;}
	
		.st7{fill-rule:evenodd;clip-rule:evenodd;fill:#F04DDC;stroke:#F04DDC;stroke-width:0.72;stroke-linecap:square;stroke-miterlimit:2;}
	
		.st8{fill-rule:evenodd;clip-rule:evenodd;fill:#F24194;stroke:#EE3F8F;stroke-width:0.72;stroke-linecap:square;stroke-linejoin:bevel;}
</style>
<path id="shape0" class="st0" d="M529,480.6c-20.1,114-110.2,210.2-229.2,210.2c-135.5,0-243.6-115.5-243.6-251
	c0-135.5,80.4-245.2,215.9-245.2c106.1,0,216.2,65.7,260.9,205.2c36.2-14.4,58.2-24.8,65.8-31.3c3.2-14,2.7-37.7,0.6-48.2
	c-2.9-14.4-12.4-22-12.2-27.4c0.2-7,6.3-10.5,8.3-10.8c12.1-2.1,22,16.7,24.1,23c3.5,10.7,6.6,24.5,9.4,41.4
	c22.1-15.7,38.5-19.5,49.3-11.2c4.4,3.4,3.2,11.9-3.6,25.6c9.8,6.1,15.2,10.7,16.2,14c1.5,4.8,0.6,10.1-2.5,15.8
	c7,7.3,10.6,12.4,10.8,15.1c0.5,6.2-1.3,12-5.4,17.3c4.7,5,7.4,8.7,7.9,11.2c1.2,5.2-2.2,9.4-3.6,11.2
	c-9.5,12.1-24.6,13.5-31.7,14.8c-9.1,1.6-24.4,1-45.8-1.9c-0.9-0.1-30.1,6.2-87.6,18.8c-14.9,3.5-29.6,6.6-44.1,9.4
	c-48.9,9.2-95,13.4-135.4,8c-53.6-7.2-128.6-29.9-225-68"/>
<path id="shape01" class="st1" d="M138,476c76.5,24.9,131.5,40.3,165,46.3c55.2,9.2,102.2,5.5,177.7-6.6"/>
<path id="shape02" class="st2" d="M153.4,635C54.9,554.9,60.1,445,59.9,438.6C58.3,330.1,122,215,235.3,202
	C195.1,227.2,88,276.2,79.4,420C81.2,473,85.9,535.6,153.4,635z"/>
<path id="shape3" krita:marker-fill-method="auto" class="st3" d="M183.8,265.8c9.9-8.3,20.7-12.8,32.6-13.7
	c10.2-0.8,20.7,3.1,31.6,11.7"/>
<path id="shape4" class="st3" d="M435.2,286.6c12.5-0.2,21.7,3.1,27.5,9.7c4.4,5,7,11.6,7.6,19.9"/>
<path id="shape5" class="st4" d="M249.8,330.5c0-15.4-11.8-28.9-27.7-27.7c-15.3-0.9-27.7,12-27.7,27.7
	c-1.5,16.1,11.2,28.3,27.7,27.7C243.9,356.1,253.5,350.6,249.8,330.5z"/>
<path id="shape6" class="st5" d="M225.4,315.7c0-4.6-3.9-4.5-9-4.5c-5.2,0-7,3-7,7.6s3.3,5.8,8.5,5.8
	C220,321.8,225.6,321.5,225.4,315.7z"/>
<path id="shape7" class="st4" d="M450.4,356c0-14.7-13.5-28.4-28.8-28.4c-15.3,0-33.5,5.4-33.5,20.2c0,14.7,18.2,36.7,33.5,36.7
	C436.9,384.5,450.4,370.8,450.4,356z"/>
<path id="shape8" class="st5" d="M415.4,343.3c0-2.8-0.2-5.6-5.4-5.6c-5.2,0-9.4,3.7-9.4,6.5c0,2.8,2.8,4.5,7.9,4.5
	C413.8,348.7,415.4,346,415.4,343.3z"/>
<path id="shape9" class="st1" d="M134.6,430.6c-8.1,115.2,44.2,181.8,141.8,198c118.4,16.2,187-26.3,212.4-136.8"/>
<path id="shape10" class="st3" d="M252.7,651.6c20.3,8,39.8,11.4,58.3,10.1c20.3-1.4,35-4.5,43.9-9.4"/>
<path id="shape12" class="st1" d="M179.7,579.4c65.5,12.6,112.3,18.9,140.5,18.8c26.2-0.1,65.4-3.3,117.6-9.7"/>
<path id="shape13" class="st1" d="M160.8,549.3c32.1-11.6,59.1-13.6,80.9-6.1c17.3,5.9,33.6,22.4,48.9,49.4"/>
<path id="shape14" class="st1" d="M278.5,570.7c17.2-8.8,30.4-12,39.7-9.7c11.6,2.9,23,13.4,34.1,31.6"/>
<path id="shape0_1_" class="st1" d="M533,399.8c-39.6,11.9-82.4,9.3-102.8,8.9c-20.8-0.4-47.2-4.8-79.4-13.4"/>
<path id="shape1" class="st6" d="M186.7,584.4c18,22.2,75.1,32,125.9,34.2c49.8,2.1,89.7-6.4,119.6-25.3
	c-49.9,5.8-87.9,8.9-114.1,9.1C293.1,602.1,210.8,592.8,186.7,584.4z"/>
<path id="shape03" class="st6" d="M138.5,445.3l0.8,26.8c138.3,46.1,194.1,65.1,339.9,39.7l5.3-20.3
	C337,524.3,179.9,459.6,138.5,445.3z"/>
<path id="shape2" class="st7" d="M161.1,553.9c4.1,5.9,7.6,11,9.4,13.5c1.1,1.6,3.3,4.4,6.4,8.4c34.6,7.1,71,12.6,109.1,16.7
	c-10.9-21.7-25-36.6-42.5-44.8C216.2,533.5,158.9,550.7,161.1,553.9z"/>
<path id="shape04" class="st7" d="M282.5,573c4.1,5.9,4.4,6.7,6.2,9.2c1.1,1.6,2.5,6.8,6.2,11c25.1,3.3,27.4,1.5,53.5,0.1
	c-8.3-13.3-18.4-24.4-26.3-26.9C310.3,560,295.3,567.2,282.5,573z"/>
<path id="shape3_1_" class="st8" d="M138.7,480.4c54.1,15.9,113.5,37.3,172.3,46.6c65.6,9.4,138-3.4,167.4-7.5
	c-6.7,15.5-17.1,41.4-37.8,65.2c-23.6,3.2-57.4,6-84.5,8.4c-14.6-20.4-26.5-51.2-78.4-25.4c-37.3-49.8-98.3-28.1-120.1-20.6
	C147.5,525.3,142.9,514.6,138.7,480.4z"/>
</svg>
