<svg width="370" height="42" viewBox="0 0 370 42" fill="none" xmlns="http://www.w3.org/2000/svg">
<path d="M0.576 24V22.528L7.072 11.744C7.68 10.752 8.256 9.824 8.64 8.864C9.056 7.872 9.344 6.848 9.344 5.792C9.344 2.72 7.616 1.728 4.608 1.728C3.424 1.728 2.24 1.856 1.216 1.984V0.639999C2.784 0.383999 4.352 0.191999 5.888 0.191999C11.296 0.191999 13.568 2.016 13.568 6.144C13.568 7.552 13.184 8.896 12.608 10.176C12.064 11.392 11.424 12.576 10.688 13.76L5.408 22.528H14.048V24H0.576ZM23.8655 24.224C18.5215 24.224 16.0575 20.576 16.0575 12.192C16.0575 3.808 18.5215 0.127998 23.8655 0.127998C29.2095 0.127998 31.6735 3.808 31.6735 12.192C31.6735 20.576 29.2095 24.224 23.8655 24.224ZM23.8655 22.784C26.6495 22.784 27.3855 20.832 27.3855 12.192C27.3855 3.616 26.6495 1.536 23.8655 1.536C21.0815 1.536 20.3135 3.616 20.3135 12.192C20.3135 20.832 21.0815 22.784 23.8655 22.784ZM41.678 24.224C36.334 24.224 33.87 20.576 33.87 12.192C33.87 3.808 36.334 0.127998 41.678 0.127998C47.022 0.127998 49.486 3.808 49.486 12.192C49.486 20.576 47.022 24.224 41.678 24.224ZM41.678 22.784C44.462 22.784 45.198 20.832 45.198 12.192C45.198 3.616 44.462 1.536 41.678 1.536C38.894 1.536 38.126 3.616 38.126 12.192C38.126 20.832 38.894 22.784 41.678 22.784ZM51.4073 24V19.712H55.1833V24H51.4073ZM56.1103 17.472V16.064L64.8463 0.383999H68.8143V16.064H71.0863V17.472H68.8143V24H64.6863V17.472H56.1103ZM57.7103 16.064H64.6863V3.584L57.7103 16.064Z" fill="currentColor" fill-opacity="0.5"/>
<path d="M102.783 24.352C90.8468 24.352 80.4788 22.144 80.4788 12.224C80.4788 3.872 87.4868 0.0959988 102.015 0.0959988C107.455 0.0959988 112.095 0.48 116.543 1.12V3.456C112.159 3.104 107.359 2.848 102.975 2.848C95.7748 2.848 92.8948 4.96 92.8948 12.16C92.8948 19.616 95.7748 21.472 102.975 21.472C104.255 21.472 105.503 21.472 106.783 21.376V13.216H101.279V10.592H118.079V23.264C113.119 24.032 107.807 24.352 102.783 24.352ZM146.228 24L138.676 15.232H135.06V24H123.284V0.383999H142.484C152.02 0.383999 158.932 1.856 158.932 7.84C158.932 11.456 156.052 13.504 151.412 14.496L160.052 24H146.228ZM135.06 12.608H141.684C145.364 12.608 147.156 11.68 147.156 7.808C147.156 4.064 145.364 3.008 141.684 3.008H135.06V12.608ZM190.757 24V13.216H175.941V24H163.909V0.383999H175.941V10.592H190.757V0.383999H202.789V24H190.757ZM224.411 24L211.323 5.408V24H208.347V0.383999H221.371L232.699 16.576L243.899 0.383999H255.899V24H243.899V5.6L231.227 24H224.411ZM260.352 16.416V13.792H279.936V16.416H260.352ZM284.378 24V0.383999H315.706V3.008H296.41V10.912H313.306V13.536H296.41V24H284.378ZM335.723 24L322.635 5.408V24H319.659V0.383999H332.683L344.011 16.576L355.211 0.383999H367.211V24H355.211V5.6L342.539 24H335.723Z" fill="currentColor"/>
<path d="M247.674 35.3636L249.72 31.7273H250.392L249.392 35.3636H247.674ZM244.947 35.3636L246.992 31.7273H247.665L246.665 35.3636H244.947ZM254.485 39V32.5455H252.212V31.7273H257.667V32.5455H255.394V39H254.485ZM259.034 39V31.7273H259.943V34.6364H263.58V31.7273H264.489V39H263.58V35.4545H259.943V39H259.034ZM266.309 39V31.7273H271.037V32.5455H267.219V34.6364H270.582V35.4545H267.219V38.1818H271.037V39H266.309ZM280.954 39.0545C280.251 39.0545 279.654 38.9273 279.163 38.6727C278.678 38.4182 278.305 37.9333 278.045 37.2182L278.89 36.8818C279.078 37.397 279.327 37.7515 279.636 37.9455C279.951 38.1394 280.408 38.2364 281.008 38.2364C281.536 38.2364 281.963 38.1394 282.29 37.9455C282.617 37.7515 282.781 37.4303 282.781 36.9818C282.781 36.5697 282.636 36.2818 282.345 36.1182C282.06 35.9485 281.545 35.8061 280.799 35.6909C279.866 35.5515 279.211 35.3333 278.836 35.0364C278.466 34.7394 278.281 34.2909 278.281 33.6909C278.281 33.0727 278.505 32.5848 278.954 32.2273C279.402 31.8697 280.014 31.6909 280.79 31.6909C281.493 31.6909 282.072 31.8121 282.527 32.0545C282.981 32.2909 283.324 32.7212 283.554 33.3455L282.708 33.6818C282.551 33.2455 282.305 32.9424 281.972 32.7727C281.639 32.597 281.227 32.5091 280.736 32.5091C280.275 32.5091 279.902 32.5909 279.617 32.7545C279.339 32.9182 279.199 33.203 279.199 33.6091C279.199 34.0212 279.351 34.3061 279.654 34.4636C279.957 34.6212 280.502 34.7576 281.29 34.8727C282.175 35.0061 282.796 35.2182 283.154 35.5091C283.511 35.8 283.69 36.2394 283.69 36.8273C283.69 37.5182 283.445 38.0636 282.954 38.4636C282.469 38.8576 281.802 39.0545 280.954 39.0545ZM288.138 39.0909C287.235 39.0909 286.553 38.8727 286.093 38.4364C285.638 38 285.411 37.3485 285.411 36.4818V34.2818C285.411 33.403 285.641 32.7424 286.102 32.3C286.563 31.8576 287.244 31.6364 288.147 31.6364C289.05 31.6364 289.729 31.8576 290.184 32.3C290.638 32.7424 290.866 33.403 290.866 34.2818V36.4818C290.866 37.3485 290.635 38 290.175 38.4364C289.72 38.8727 289.041 39.0909 288.138 39.0909ZM288.138 38.2727C288.793 38.2727 289.26 38.1364 289.538 37.8636C289.817 37.5848 289.956 37.1242 289.956 36.4818V34.2818C289.956 33.6273 289.817 33.1606 289.538 32.8818C289.26 32.597 288.793 32.4545 288.138 32.4545C287.484 32.4545 287.017 32.597 286.738 32.8818C286.46 33.1606 286.32 33.6273 286.32 34.2818V36.4818C286.32 37.1242 286.46 37.5848 286.738 37.8636C287.017 38.1364 287.484 38.2727 288.138 38.2727ZM295.414 39.0909C294.462 39.0909 293.768 38.8545 293.332 38.3818C292.902 37.9091 292.686 37.2758 292.686 36.4818V31.7273H293.596V36.4818C293.596 37.0455 293.717 37.4848 293.959 37.8C294.208 38.1152 294.692 38.2727 295.414 38.2727C296.135 38.2727 296.617 38.1152 296.859 37.8C297.108 37.4848 297.232 37.0455 297.232 36.4818V31.7273H298.141V36.4818C298.141 37.2758 297.923 37.9091 297.486 38.3818C297.056 38.8545 296.365 39.0909 295.414 39.0909ZM304.116 39L300.825 32.9455V39H299.962V31.7273H301.207L304.553 37.9V31.7273H305.416V39H304.116ZM307.237 39V31.7273H309.701C310.634 31.7273 311.364 31.9697 311.892 32.4545C312.425 32.9333 312.692 33.5727 312.692 34.3727V36.3909C312.692 37.1848 312.425 37.8182 311.892 38.2909C311.358 38.7636 310.625 39 309.692 39H307.237ZM308.146 38.1818H309.692C310.395 38.1818 310.919 38.0182 311.264 37.6909C311.61 37.3576 311.783 36.9242 311.783 36.3909V34.3727C311.783 33.8455 311.61 33.4091 311.264 33.0636C310.919 32.7182 310.395 32.5455 309.692 32.5455H308.146V38.1818ZM322.699 39.0909C321.796 39.0909 321.114 38.8727 320.653 38.4364C320.199 38 319.972 37.3485 319.972 36.4818V34.2818C319.972 33.403 320.202 32.7424 320.662 32.3C321.123 31.8576 321.805 31.6364 322.708 31.6364C323.611 31.6364 324.29 31.8576 324.744 32.3C325.199 32.7424 325.426 33.403 325.426 34.2818V36.4818C325.426 37.3485 325.196 38 324.735 38.4364C324.281 38.8727 323.602 39.0909 322.699 39.0909ZM322.699 38.2727C323.353 38.2727 323.82 38.1364 324.099 37.8636C324.378 37.5848 324.517 37.1242 324.517 36.4818V34.2818C324.517 33.6273 324.378 33.1606 324.099 32.8818C323.82 32.597 323.353 32.4545 322.699 32.4545C322.044 32.4545 321.578 32.597 321.299 32.8818C321.02 33.1606 320.881 33.6273 320.881 34.2818V36.4818C320.881 37.1242 321.02 37.5848 321.299 37.8636C321.578 38.1364 322.044 38.2727 322.699 38.2727ZM327.247 39V31.7273H331.974V32.5455H328.156V35.3636H331.338V36.1818H328.156V39H327.247ZM340.891 39V32.5455H338.619V31.7273H344.073V32.5455H341.8V39H340.891ZM345.44 39V31.7273H346.349V34.6364H349.986V31.7273H350.895V39H349.986V35.4545H346.349V39H345.44ZM352.716 39V31.7273H357.443V32.5455H353.625V34.6364H356.988V35.4545H353.625V38.1818H357.443V39H352.716ZM366.624 39.0909C365.909 39.0909 365.333 38.9182 364.896 38.5727C364.46 38.2273 364.221 37.5909 364.178 36.6636L365.087 36.5636C365.13 37.2424 365.257 37.697 365.469 37.9273C365.681 38.1576 366.069 38.2727 366.633 38.2727C367.245 38.2727 367.654 38.1152 367.86 37.8C368.072 37.4788 368.178 37.0939 368.178 36.6455V32.5455H366.36V31.7273H369.087V36.6364C369.087 37.4 368.887 38 368.487 38.4364C368.093 38.8727 367.472 39.0909 366.624 39.0909Z" fill="currentColor" fill-opacity="0.7"/>
</svg>
