<svg width="356" height="43" viewBox="0 0 356 43" fill="none"
    xmlns="http://www.w3.org/2000/svg">
    <path
        d="M8.672 25.32C3.616 25.32 1.088 23.176 1.088 18.408C1.088 15.336 2.08 13.48 4.64 12.552C2.432 11.688 1.536 9.96 1.536 7.304C1.536 2.984 3.808 1.064 8.672 1.064C13.536 1.064 15.84 2.984 15.84 7.272C15.84 9.96 14.88 11.72 12.672 12.552C15.232 13.48 16.256 15.336 16.256 18.408C16.256 23.112 13.728 25.32 8.672 25.32ZM8.672 23.912C11.168 23.912 12 22.664 12 18.536C12 14.536 11.168 13.256 8.672 13.256C6.176 13.256 5.344 14.536 5.344 18.536C5.344 22.728 6.176 23.912 8.672 23.912ZM8.672 11.816C11.008 11.816 11.648 10.792 11.648 7.176C11.648 3.56 11.008 2.44 8.672 2.44C6.336 2.44 5.696 3.56 5.696 7.176C5.696 10.792 6.336 11.816 8.672 11.816ZM26.0158 25.32C20.9598 25.32 18.4318 23.176 18.4318 18.408C18.4318 15.336 19.4238 13.48 21.9838 12.552C19.7758 11.688 18.8798 9.96 18.8798 7.304C18.8798 2.984 21.1518 1.064 26.0158 1.064C30.8798 1.064 33.1838 2.984 33.1838 7.272C33.1838 9.96 32.2238 11.72 30.0158 12.552C32.5758 13.48 33.5998 15.336 33.5998 18.408C33.5998 23.112 31.0718 25.32 26.0158 25.32ZM26.0158 23.912C28.5118 23.912 29.3438 22.664 29.3438 18.536C29.3438 14.536 28.5118 13.256 26.0158 13.256C23.5198 13.256 22.6878 14.536 22.6878 18.536C22.6878 22.728 23.5198 23.912 26.0158 23.912ZM26.0158 11.816C28.3518 11.816 28.9918 10.792 28.9918 7.176C28.9918 3.56 28.3518 2.44 26.0158 2.44C23.6798 2.44 23.0398 3.56 23.0398 7.176C23.0398 10.792 23.6798 11.816 26.0158 11.816ZM35.7823 25V20.712H39.5583V25H35.7823ZM46.6598 25.192C45.2518 25.192 43.9398 25 42.5958 24.712V23.368C43.6838 23.528 44.7078 23.624 45.7638 23.624C50.4038 23.624 51.5558 22.024 51.5878 14.504C50.7238 16.168 48.9318 16.744 46.8518 16.712C43.2678 16.68 40.8038 14.728 40.8038 9.064C40.8038 3.112 43.9398 1.16 48.0358 1.16C52.6118 1.16 55.6838 3.24 55.7478 12.296C55.8118 22.504 52.4518 25.192 46.6598 25.192ZM48.2278 15.048C50.4038 15.048 51.4278 14.12 51.4278 8.808C51.4278 3.528 50.4358 2.504 48.2278 2.504C46.0518 2.504 45.0278 3.528 45.0278 8.808C45.0278 14.12 46.0518 15.048 48.2278 15.048Z"
        fill="currentColor" fill-opacity="0.5" />
    <path
        d="M88.0015 25.352C76.0655 25.352 65.6975 23.144 65.6975 13.224C65.6975 4.872 72.7055 1.096 87.2335 1.096C92.6735 1.096 97.3135 1.48 101.762 2.12V4.456C97.3775 4.104 92.5775 3.848 88.1935 3.848C80.9935 3.848 78.1135 5.96 78.1135 13.16C78.1135 20.616 80.9935 22.472 88.1935 22.472C89.4735 22.472 90.7215 22.472 92.0015 22.376V14.216H86.4975V11.592H103.298V24.264C98.3375 25.032 93.0255 25.352 88.0015 25.352ZM131.447 25L123.895 16.232H120.279V25H108.503V1.384H127.703C137.239 1.384 144.151 2.856 144.151 8.84C144.151 12.456 141.271 14.504 136.631 15.496L145.271 25H131.447ZM120.279 13.608H126.903C130.583 13.608 132.375 12.68 132.375 8.808C132.375 5.064 130.583 4.008 126.903 4.008H120.279V13.608ZM165.192 25L152.104 6.408V25H149.128V1.384H162.152L173.48 17.576L184.68 1.384H196.68V25H184.68V6.6L172.008 25H165.192ZM221.933 25.448C208.109 25.448 201.229 20.584 201.229 13.224C201.229 5.864 208.109 0.935999 221.933 0.935999C235.757 0.935999 242.637 5.864 242.637 13.224C242.637 20.584 235.757 25.448 221.933 25.448ZM221.933 22.824C227.757 22.824 230.253 21.096 230.253 13.16C230.253 5.224 227.757 3.56 221.933 3.56C216.109 3.56 213.613 5.224 213.613 13.16C213.613 21.096 216.109 22.824 221.933 22.824ZM246.07 17.416V14.792H265.654V17.416H246.07ZM270.097 25V1.384H301.425V4.008H282.129V11.912H299.025V14.536H282.129V25H270.097ZM321.442 25L308.354 6.408V25H305.378V1.384H318.402L329.73 17.576L340.93 1.384H352.93V25H340.93V6.6L328.258 25H321.442Z"
        fill="currentColor" />
    <path
        d="M233.674 36.3636L235.72 32.7273H236.392L235.392 36.3636H233.674ZM230.947 36.3636L232.992 32.7273H233.665L232.665 36.3636H230.947ZM240.485 40V33.5455H238.212V32.7273H243.667V33.5455H241.394V40H240.485ZM245.034 40V32.7273H245.943V35.6364H249.58V32.7273H250.489V40H249.58V36.4545H245.943V40H245.034ZM252.309 40V32.7273H257.037V33.5455H253.219V35.6364H256.582V36.4545H253.219V39.1818H257.037V40H252.309ZM266.954 40.0545C266.251 40.0545 265.654 39.9273 265.163 39.6727C264.678 39.4182 264.305 38.9333 264.045 38.2182L264.89 37.8818C265.078 38.397 265.327 38.7515 265.636 38.9455C265.951 39.1394 266.408 39.2364 267.008 39.2364C267.536 39.2364 267.963 39.1394 268.29 38.9455C268.617 38.7515 268.781 38.4303 268.781 37.9818C268.781 37.5697 268.636 37.2818 268.345 37.1182C268.06 36.9485 267.545 36.8061 266.799 36.6909C265.866 36.5515 265.211 36.3333 264.836 36.0364C264.466 35.7394 264.281 35.2909 264.281 34.6909C264.281 34.0727 264.505 33.5848 264.954 33.2273C265.402 32.8697 266.014 32.6909 266.79 32.6909C267.493 32.6909 268.072 32.8121 268.527 33.0545C268.981 33.2909 269.324 33.7212 269.554 34.3455L268.708 34.6818C268.551 34.2455 268.305 33.9424 267.972 33.7727C267.639 33.597 267.227 33.5091 266.736 33.5091C266.275 33.5091 265.902 33.5909 265.617 33.7545C265.339 33.9182 265.199 34.203 265.199 34.6091C265.199 35.0212 265.351 35.3061 265.654 35.4636C265.957 35.6212 266.502 35.7576 267.29 35.8727C268.175 36.0061 268.796 36.2182 269.154 36.5091C269.511 36.8 269.69 37.2394 269.69 37.8273C269.69 38.5182 269.445 39.0636 268.954 39.4636C268.469 39.8576 267.802 40.0545 266.954 40.0545ZM274.138 40.0909C273.235 40.0909 272.553 39.8727 272.093 39.4364C271.638 39 271.411 38.3485 271.411 37.4818V35.2818C271.411 34.403 271.641 33.7424 272.102 33.3C272.563 32.8576 273.244 32.6364 274.147 32.6364C275.05 32.6364 275.729 32.8576 276.184 33.3C276.638 33.7424 276.866 34.403 276.866 35.2818V37.4818C276.866 38.3485 276.635 39 276.175 39.4364C275.72 39.8727 275.041 40.0909 274.138 40.0909ZM274.138 39.2727C274.793 39.2727 275.26 39.1364 275.538 38.8636C275.817 38.5848 275.956 38.1242 275.956 37.4818V35.2818C275.956 34.6273 275.817 34.1606 275.538 33.8818C275.26 33.597 274.793 33.4545 274.138 33.4545C273.484 33.4545 273.017 33.597 272.738 33.8818C272.46 34.1606 272.32 34.6273 272.32 35.2818V37.4818C272.32 38.1242 272.46 38.5848 272.738 38.8636C273.017 39.1364 273.484 39.2727 274.138 39.2727ZM281.414 40.0909C280.462 40.0909 279.768 39.8545 279.332 39.3818C278.902 38.9091 278.686 38.2758 278.686 37.4818V32.7273H279.596V37.4818C279.596 38.0455 279.717 38.4848 279.959 38.8C280.208 39.1152 280.692 39.2727 281.414 39.2727C282.135 39.2727 282.617 39.1152 282.859 38.8C283.108 38.4848 283.232 38.0455 283.232 37.4818V32.7273H284.141V37.4818C284.141 38.2758 283.923 38.9091 283.486 39.3818C283.056 39.8545 282.365 40.0909 281.414 40.0909ZM290.116 40L286.825 33.9455V40H285.962V32.7273H287.207L290.553 38.9V32.7273H291.416V40H290.116ZM293.237 40V32.7273H295.701C296.634 32.7273 297.364 32.9697 297.892 33.4545C298.425 33.9333 298.692 34.5727 298.692 35.3727V37.3909C298.692 38.1848 298.425 38.8182 297.892 39.2909C297.358 39.7636 296.625 40 295.692 40H293.237ZM294.146 39.1818H295.692C296.395 39.1818 296.919 39.0182 297.264 38.6909C297.61 38.3576 297.783 37.9242 297.783 37.3909V35.3727C297.783 34.8455 297.61 34.4091 297.264 34.0636C296.919 33.7182 296.395 33.5455 295.692 33.5455H294.146V39.1818ZM308.699 40.0909C307.796 40.0909 307.114 39.8727 306.653 39.4364C306.199 39 305.972 38.3485 305.972 37.4818V35.2818C305.972 34.403 306.202 33.7424 306.662 33.3C307.123 32.8576 307.805 32.6364 308.708 32.6364C309.611 32.6364 310.29 32.8576 310.744 33.3C311.199 33.7424 311.426 34.403 311.426 35.2818V37.4818C311.426 38.3485 311.196 39 310.735 39.4364C310.281 39.8727 309.602 40.0909 308.699 40.0909ZM308.699 39.2727C309.353 39.2727 309.82 39.1364 310.099 38.8636C310.378 38.5848 310.517 38.1242 310.517 37.4818V35.2818C310.517 34.6273 310.378 34.1606 310.099 33.8818C309.82 33.597 309.353 33.4545 308.699 33.4545C308.044 33.4545 307.578 33.597 307.299 33.8818C307.02 34.1606 306.881 34.6273 306.881 35.2818V37.4818C306.881 38.1242 307.02 38.5848 307.299 38.8636C307.578 39.1364 308.044 39.2727 308.699 39.2727ZM313.247 40V32.7273H317.974V33.5455H314.156V36.3636H317.338V37.1818H314.156V40H313.247ZM326.891 40V33.5455H324.619V32.7273H330.073V33.5455H327.8V40H326.891ZM331.44 40V32.7273H332.349V35.6364H335.986V32.7273H336.895V40H335.986V36.4545H332.349V40H331.44ZM338.716 40V32.7273H343.443V33.5455H339.625V35.6364H342.988V36.4545H339.625V39.1818H343.443V40H338.716ZM352.624 40.0909C351.909 40.0909 351.333 39.9182 350.896 39.5727C350.46 39.2273 350.221 38.5909 350.178 37.6636L351.087 37.5636C351.13 38.2424 351.257 38.697 351.469 38.9273C351.681 39.1576 352.069 39.2727 352.633 39.2727C353.245 39.2727 353.654 39.1152 353.86 38.8C354.072 38.4788 354.178 38.0939 354.178 37.6455V33.5455H352.36V32.7273H355.087V37.6364C355.087 38.4 354.887 39 354.487 39.4364C354.093 39.8727 353.472 40.0909 352.624 40.0909Z"
        fill="currentColor" fill-opacity="0.7" />
</svg>
